# xmcd
# 
# Track frame offsets:
#     150
#     16060
#     27110
#     40552
#     50610
#     65935
#     73560
#     90177
#     102355
#     115352
#     132787
#     143767
#     159252
#     173905
#     188752
#     202295
#     214757
#     226155
#     242990
#     257042
#     275315
#     291762
#     309972
# 
# Disc length: 4292
# 
# Revision: 2
# Processed by: cddbd v1.5.2PL0 Copyright (c) Steve Scherf et al.
# Submitted via: fre:ac v1.0.17
# 
DISCID=4210c217
DTITLE=Sarah Vaughan - The Divine
DYEAR=0
DGENRE=jazz
TTITLE0=Bewitched
TTITLE1=Moon Glow
TTITLE2=My Funny Valentine
TTITLE3=The Lady's in Love with You
TTITLE4=Gloomy Sunday
TTITLE5=I Cried For You
TTITLE6=It Never Entered My Mind
TTITLE7=They Can't Take That Away From me
TTITLE8=Summertime
TTITLE9=A Foggy Day
TTITLE10=Let's Call The Whole Thing Off
TTITLE11=But Not For me
TTITLE12=All Of Me
TTITLE13=Lover Man
TTITLE14=You Hit The Spot
TTITLE15=Prelude To A  Kiss
TTITLE16=If I Knew Then (What I Know Now)
TTITLE17=These Foolish Things
TTITLE18=Pennies From Heaven
TTITLE19=Someone To Watch Over Me
TTITLE20=The Man I Love
TTITLE21=Lullaby of Birdland
TTITLE22=Whatever Lola Wants
EXTD=
EXTT0=
EXTT1=
EXTT2=
EXTT3=
EXTT4=
EXTT5=
EXTT6=
EXTT7=
EXTT8=
EXTT9=
EXTT10=
EXTT11=
EXTT12=
EXTT13=
EXTT14=
EXTT15=
EXTT16=
EXTT17=
EXTT18=
EXTT19=
EXTT20=
EXTT21=
EXTT22=
PLAYORDER=
